<svg width="25" height="24" viewBox="0 0 25 24" fill="none" xmlns="http://www.w3.org/2000/svg">
<path d="M12.501 2C6.97598 2 2.50098 6.475 2.50098 12C2.50098 16.425 5.36348 20.1625 9.33848 21.4875C9.83848 21.575 10.026 21.275 10.026 21.0125C10.026 20.775 10.0135 19.9875 10.0135 19.15C7.50098 19.6125 6.85098 18.5375 6.65098 17.975C6.53848 17.6875 6.05098 16.8 5.62598 16.5625C5.27598 16.375 4.77598 15.9125 5.61348 15.9C6.40098 15.8875 6.96348 16.625 7.15098 16.925C8.05098 18.4375 9.48848 18.0125 10.0635 17.75C10.151 17.1 10.4135 16.6625 10.701 16.4125C8.47598 16.1625 6.15098 15.3 6.15098 11.475C6.15098 10.3875 6.53848 9.4875 7.17598 8.7875C7.07598 8.5375 6.72598 7.5125 7.27598 6.1375C7.27598 6.1375 8.11348 5.875 10.026 7.1625C10.826 6.9375 11.676 6.825 12.526 6.825C13.376 6.825 14.226 6.9375 15.026 7.1625C16.9385 5.8625 17.776 6.1375 17.776 6.1375C18.326 7.5125 17.976 8.5375 17.876 8.7875C18.5135 9.4875 18.901 10.375 18.901 11.475C18.901 15.3125 16.5635 16.1625 14.3385 16.4125C14.701 16.725 15.0135 17.325 15.0135 18.2625C15.0135 19.6 15.001 20.675 15.001 21.0125C15.001 21.275 15.1885 21.5875 15.6885 21.4875C19.759 20.1133 22.4999 16.2963 22.501 12C22.501 6.475 18.026 2 12.501 2Z" fill="white"/>
</svg>
